<?xml version="1.0" encoding="utf-8"?><!-- Generator: Adobe Illustrator 18.1.0, SVG Export Plug-In . SVG Version: 6.00 Build 0)  -->
<!DOCTYPE svg PUBLIC "-//W3C//DTD SVG 1.1//EN" "http://www.w3.org/Graphics/SVG/1.1/DTD/svg11.dtd">
<svg xmlns="http://www.w3.org/2000/svg" xmlns:xlink="http://www.w3.org/1999/xlink" version="1.1" id="Layer_1" x="0px" y="0px" viewBox="0 0 32 32" enable-background="new 0 0 32 32" xml:space="preserve">
<defs>
  <style>
    g {
      display: none;
    }
    g:target {
      display: inline;
    }
  </style>
</defs>

<g id="icon-clock">
  <path d="M20.6,23.3L14,16.7V7.9h4v7.2l5.4,5.4L20.6,23.3z M16-0.1c-8.8,0-16,7.2-16,16s7.2,16,16,16s16-7.2,16-16S24.8-0.1,16-0.1z
		 M16,27.9c-6.6,0-12-5.4-12-12s5.4-12,12-12s12,5.4,12,12S22.6,27.9,16,27.9z"/>
</g>
<g id="icon-heart">
  <path d="M32,11.2c0,2.7-1.2,5.1-3,6.8l0,0L19,28c-1,1-2,2-3,2s-2-1-3-2L3,18c-1.9-1.7-3-4.1-3-6.8C0,6.1,4.1,2,9.2,2
		c2.7,0,5.1,1.2,6.8,3c1.7-1.9,4.1-3,6.8-3C27.9,1.9,32,6.1,32,11.2z"/>
</g>
<g id="icon-circle-left">
  <path d="M32,15.9l-16-16v10H0v12h16v10L32,15.9z"/>
</g>
<g id="icon-arrow-right">
  <path d="M32,15.9l-16-16v10H0v12h16v10L32,15.9z"/>
</g>


<g id="icon-loop2" >
	<path class="path1" fill="#333" d="M889.68 166.32c-93.608-102.216-228.154-166.32-377.68-166.32-282.77 0-512 229.23-512 512h96c0-229.75 186.25-416 416-416 123.020 0 233.542 53.418 309.696 138.306l-149.696 149.694h352v-352l-134.32 134.32z"></path>
	<path class="path2" d="M928 512c0 229.75-186.25 416-416 416-123.020 0-233.542-53.418-309.694-138.306l149.694-149.694h-352v352l134.32-134.32c93.608 102.216 228.154 166.32 377.68 166.32 282.77 0 512-229.23 512-512h-96z"></path>
</g>

</svg>